# xmcd
#
# Track frame offsets: 
#        182
#        16945
#        36322
#        57627
#        77507
#        93820
#        122795
#        139370
#        160320
#        167970
#        178632
#        183557
#        203457
#        206620
#        225550
#        231425
#        251352
#        259907
#        283037
#
# Disc length: 3968 seconds
#
# Revision: 5
# Processed by: cddbd v1.5.2PL0 Copyright (c) Steve Scherf et al.
# Submitted via: ExactAudioCopyFreeDBPlugin 1.0
#
DISCID=0d0f7e13
DTITLE=Various Artist - Die Sieben Todsünden - Mahagonny Songspiel (R
DTITLE=IAS Berlin Sinfonietta, John Mauceri)
DYEAR=1989
DGENRE=Stage
TTITLE0=Ute Lemper - Die Sieben Todsünden - Prologue: Andante sostenut
TTITLE0=o
TTITLE1=Helmut Wildhaber, Peter Haage, Thomas Mohr, Manfred Jungwirth 
TTITLE1=/ Die Sieben Todsünden - Sloth: Allegro vivace
TTITLE2=Ute Lemper - Die Sieben Todsünden - Pride: Allegretto, quasi a
TTITLE2=ndantino
TTITLE3=Helmut Wildhaber, Peter Haage, Thomas Mohr, Manfred Jungwirth,
TTITLE3=Ute Lemper - Die Sieben Todsünden - Anger: Molto agitato
TTITLE4=Helmut Wildhaber, Peter Haage, Thomas Mohr, Manfred Jungwirth 
TTITLE4=/ Die Sieben Todsünden - Gluttony: Largo
TTITLE5=Ute Lemper - Die Sieben Todsünden - Lust: Moderato
TTITLE6=Helmut Wildhaber, Peter Haage, Thomas Mohr, Manfred Jungwirth 
TTITLE6=/ Die Sieben Todsünden - Avarice: Allegro giustoso
TTITLE7=Ute Lemper - Die Sieben Todsünden - Envy: Allegro non troppo
TTITLE8=Ute Lemper - Die Sieben Todsünden - Epilogue: Andante sostenut
TTITLE8=o
TTITLE9=Helmut Wildhaber, Peter Haage, Thomas Mohr, Manfred Jungwirth 
TTITLE9=/ Mahagonny Songspiel - I. Allegro non troppo
TTITLE10=RIAS Berlin Sinfonietta, John Mauceri - Mahagonny Songspiel -
TTITLE10=I. Kleiner Marsch: Poco meno
TTITLE11=Susanne Tremper, Ute Lemper - Mahagonny Songspiel - I. Modera
TTITLE11=to 'Oh show us'
TTITLE12=RIAS Berlin Sinfonietta, John Mauceri - Mahagonny Songspiel -
TTITLE12=II. Vivace
TTITLE13=Helmut Wildhaber, Peter Haage, Thomas Mohr, Manfred Jungwirth
TTITLE13=Mahagonny Songspiel - II. Allegro un poco moderato
TTITLE14=RIAS Berlin Sinfonietta, John Mauceri - Mahagonny Songspiel -
TTITLE14=II. Vivace assai
TTITLE15=Susanne Tremper, Ute Lemper, Helmut Wildhaber, Peter Haage, T
TTITLE15=homas Mohr, Manfred Jungwirth - Mahagonny Songspiel - II. Mod
TTITLE15=erato assai 'There is no Whisky'
TTITLE16=RIAS Berlin Sinfonietta, John Mauceri - Mahagonny Songspiel -
TTITLE16=II. Sostenuto
TTITLE17=Susanne Tremper, Ute Lemper, Helmut Wildhaber, Peter Haage, T
TTITLE17=homas Mohr, Manfred Jungwirth - Mahagonny Songspiel - II. Len
TTITLE17=to
TTITLE18=Susanne Tremper, Ute Lemper, Helmut Wildhaber, Peter Haage, T
TTITLE18=homas Mohr, Manfred Jungwirth - Mahagonny Songspiel - III. Fi
TTITLE18=nale - Largo
EXTD=YEAR: 1989
EXTT0=
EXTT1=
EXTT2=
EXTT3=
EXTT4=
EXTT5=
EXTT6=
EXTT7=
EXTT8=
EXTT9=
EXTT10=
EXTT11=
EXTT12=
EXTT13=
EXTT14=
EXTT15=
EXTT16=
EXTT17=
EXTT18=
PLAYORDER=
